<?xml version="1.0" encoding="UTF-8" standalone="no"?>
<!DOCTYPE svg PUBLIC "-//W3C//DTD SVG 1.1//EN" "http://www.w3.org/Graphics/SVG/1.1/DTD/svg11.dtd">
<svg width="100%" height="100%" viewBox="0 0 805 836" version="1.1" xmlns="http://www.w3.org/2000/svg" xmlns:xlink="http://www.w3.org/1999/xlink" xml:space="preserve" xmlns:serif="http://www.serif.com/" style="fill-rule:evenodd;clip-rule:evenodd;stroke-linecap:round;stroke-linejoin:round;stroke-miterlimit:1.5;">
    <g transform="matrix(1,0,0,1,-1697.791997,-12.134125)">
        <g transform="matrix(25.079165,0,0,24.299634,-20410.129724,-14097.012035)">
            <path d="M898.17,580.932C876.47,581.514 877.242,613.213 895.305,614.631C918.697,616.467 918.937,581.978 898.17,580.932Z" style="fill:none;stroke:black;stroke-width:0.59px;"/>
        </g>
        <g transform="matrix(1,0,0,1,746.329919,-331.08103)">
            <g transform="matrix(0,-11.282412,-11.282412,0,1356.961451,487.216441)">
                <path d="M-6.5,-6.5C-10.642,-6.5 -14,-3.59 -14,0C-14,3.59 -10.363,6.88 -6.221,6.88C-2.079,6.88 1.35,3.278 1.372,-0.312C1.403,-5.359 -2.358,-6.5 -6.5,-6.5Z" style="fill:white;fill-rule:nonzero;"/>
            </g>
            <g transform="matrix(2.707779,0,0,2.707779,-2284.503099,-1275.508803)">
                <path d="M1315.493,709.384C1314.299,708.083 1320.216,724.371 1343.015,722.783C1355.869,721.887 1367.451,712.964 1369.134,711.411C1371.294,722.232 1383.738,768.127 1388.707,794.493C1356.716,817.358 1318.446,811.604 1304.973,791.901C1301.878,787.375 1313.158,716.856 1315.493,709.384Z" style="fill:white;"/>
            </g>
            <g transform="matrix(2.707779,0,0,2.707779,-2284.503099,-1275.508803)">
                <path d="M1363.358,792.622C1374.663,779.362 1373.886,730.647 1370.367,714.179C1372.527,724.999 1390.424,789.505 1387.729,794.622C1377.484,814.074 1327.487,811.628 1316.687,802.562C1314.096,800.386 1346.423,812.487 1363.358,792.622Z" style="fill:rgb(208,225,228);"/>
            </g>
            <g transform="matrix(2.707779,0,0,2.707779,-2281.852885,-1281.491143)">
                <path d="M1315.493,709.384C1314.299,708.083 1319.749,726.741 1342.548,725.153C1355.402,724.257 1366.521,713.998 1368.204,712.444C1370.364,723.265 1382.76,770.71 1387.729,797.076C1358.734,822.732 1316.483,813.877 1303.01,794.174C1299.914,789.648 1313.158,716.856 1315.493,709.384Z" style="fill:none;stroke:black;stroke-width:3.85px;"/>
            </g>
            <g transform="matrix(2.707779,0,0,2.707779,-2281.852885,-1281.491143)">
                <path d="M1369.388,712.652C1377.667,700.625 1399.487,677.216 1410.506,666.337C1401.767,682.521 1375.172,729.709 1374.511,731.677" style="fill:none;stroke:black;stroke-width:3.85px;"/>
            </g>
            <g transform="matrix(2.707779,0,0,2.707779,-2281.852885,-1281.491143)">
                <path d="M1315.709,710.319C1312.871,706.136 1284.503,669.476 1274.674,661.749C1277.591,672.942 1281.876,682.801 1291.141,698.988C1307.942,728.342 1308.788,730.288 1310.262,732.821" style="fill:none;stroke:black;stroke-width:3.85px;"/>
            </g>
            <g transform="matrix(2.707779,0,0,2.707779,-2268.852885,-1281.491143)">
                <path d="M1300.575,798.131C1299.098,795.522 1302.229,793.591 1294.206,828.64C1293.578,831.384 1289.435,849.484 1287.978,863.263C1303.587,828.68 1301.253,825.399 1312.814,806.8" style="fill:none;stroke:black;stroke-width:3.85px;"/>
            </g>
            <g transform="matrix(2.707779,0,0,2.707779,-2276.852885,-1281.491143)">
                <path d="M1369.388,810.165C1369.016,810.183 1382.327,857.374 1387.274,866.214C1386.98,853.64 1385.625,853.878 1383.389,829.873C1381.666,811.37 1380.795,806.944 1379.767,802.043" style="fill:none;stroke:black;stroke-width:3.85px;"/>
            </g>
            <g transform="matrix(2.707779,0,0,2.707779,-2281.852885,-1273.491143)">
                <path d="M1367.049,655.613C1359.425,635.363 1315.921,638.962 1315.171,681.24C1314.881,697.618 1342.438,724.955 1365.699,695.817C1385.688,670.776 1349.517,651.81 1357.066,657.864" style="fill:none;stroke:black;stroke-width:3.85px;"/>
            </g>
        </g>
    </g>
</svg>
